Coordinates
version=1
nRows=5
nColumns=40
inDegrees=yes

Units are S.I. units (second, meters, Newtons, ...)
Angles are in degrees.

endheader
time	pelvis_tilt	pelvis_list	pelvis_rotation	pelvis_tx	pelvis_ty	pelvis_tz	hip_flexion_r	hip_adduction_r	hip_rotation_r	knee_angle_r	knee_angle_r_beta	ankle_angle_r	subtalar_angle_r	mtp_angle_r	hip_flexion_l	hip_adduction_l	hip_rotation_l	knee_angle_l	knee_angle_l_beta	ankle_angle_l	subtalar_angle_l	mtp_angle_l	lumbar_extension	lumbar_bending	lumbar_rotation	arm_flex_r	arm_add_r	arm_rot_r	elbow_flex_r	pro_sup_r	wrist_flex_r	wrist_dev_r	arm_flex_l	arm_add_l	arm_rot_l	elbow_flex_l	pro_sup_l	wrist_flex_l	wrist_dev_l
     21.46000000	     -2.82480368	     -3.81425227	     -2.10159180	      1.04296150	      0.91854475	      0.44568453	     29.30768384	     -2.13624975	    -13.06338753	     17.72727874	     17.72727874	      3.09324389	      2.62425008	      7.50836752	     -4.65691068	     -4.80541249	    -10.43503585	     12.03360968	     12.03360968	     20.19030640	     -5.01082343	     -2.89154761	    -12.38196195	      6.69730984	      2.39265644	    -17.33319155	    -12.61527129	    -10.71110324	     26.12259712	     46.99640139	      0.00000000	      0.00000000	     25.88863236	    -21.66216339	      1.33524093	     96.71201735	     47.66079041	      0.00000000	      0.00000000
     21.47157143	     -2.95062229	     -3.69661837	     -2.05603088	      1.04489330	      0.91588633	      0.44813604	     29.16878460	     -1.95673619	    -13.36115913	     17.49528701	     17.49528701	      3.18055695	      2.64269317	      7.52307859	     -5.26862963	     -4.83763606	    -10.41592150	     11.99958753	     11.99958753	     20.67997274	     -4.93412480	     -3.03232370	    -11.89230511	      6.51332945	      2.11421153	    -18.53356418	    -12.46414291	    -10.72225826	     25.84177120	     46.99584696	      0.00000000	      0.00000000	     26.48736994	    -21.97674656	      1.01006787	     97.28194519	     47.69787986	      0.00000000	      0.00000000
     21.48314286	     -2.85841357	     -3.76811253	     -2.09652395	      1.04695434	      0.91376452	      0.45089080	     28.68117729	     -1.60812987	    -13.90060590	     17.42782819	     17.42782819	      2.91868495	      3.00033502	      6.99269605	     -6.14537886	     -5.11901892	    -10.82805339	     11.99833853	     11.99833853	     21.34901069	     -4.30810015	     -2.95540635	    -11.92973029	      6.45455244	      2.78933765	    -20.12274409	    -12.11960413	    -10.67201243	     26.21522563	     46.94883852	      0.00000000	      0.00000000	     27.07171837	    -21.49783897	      0.55078181	     99.95785439	     47.79506672	      0.00000000	      0.00000000
     21.49471429	     -2.98900741	     -3.77190592	     -2.11246919	      1.04885434	      0.91131836	      0.45385395	     28.65966371	     -1.33227947	    -13.93478249	     17.96696278	     17.96696278	      2.10421117	      2.45774110	      4.61504286	     -6.44307346	     -5.46744091	    -11.36159838	     12.64986400	     12.64986400	     22.40231228	     -3.39235580	     -2.41240695	    -11.65402520	      6.35329061	      2.59678858	    -21.51143023	    -12.00547299	    -10.50186650	     27.72367527	     46.83227761	      0.00000000	      0.00000000	     26.89500993	    -21.63800302	     -0.39240539	    102.17498450	     47.92858043	      0.00000000	      0.00000000
     21.50628571	     -2.93948643	     -3.97316205	     -2.09112052	      1.05081241	      0.90964541	      0.45694689	     28.42373913	     -0.92446447	    -14.04100196	     18.77524606	     18.77524606	      1.97410105	      2.16540891	      4.18016454	     -7.05227183	     -5.92915092	    -11.29359990	     13.00735412	     13.00735412	     22.72039685	     -3.59299655	     -2.41414618	    -11.51875660	      6.51384970	      2.60294247	    -22.17178991	    -11.84408562	    -10.42509295	     27.54448133	     46.82539428	      0.00000000	      0.00000000	     27.20202794	    -21.83428779	     -0.71283036	    102.52967159	     47.96091205	      0.00000000	      0.00000000
